<svg xmlns="http://www.w3.org/2000/svg" width="64" height="40" viewBox="0 0 64 40" role="img" aria-label="China flag">
  <rect width="64" height="40" fill="#de2910"/>
  <g fill="#ffde00">
    <polygon points="12,4 13.9,9.6 19.8,9.6 15,13 16.8,18.6 12,15.2 7.2,18.6 9,13 4.2,9.6 10.1,9.6"/>
    <polygon points="24,4 24.7,6.1 27,6.1 25.1,7.5 25.8,9.6 24,8.2 22.2,9.6 22.9,7.5 21,6.1 23.3,6.1"/>
    <polygon points="28,10 28.7,12.1 31,12.1 29.1,13.5 29.8,15.6 28,14.2 26.2,15.6 26.9,13.5 25,12.1 27.3,12.1"/>
    <polygon points="28,18 28.7,20.1 31,20.1 29.1,21.5 29.8,23.6 28,22.2 26.2,23.6 26.9,21.5 25,20.1 27.3,20.1"/>
    <polygon points="24,24 24.7,26.1 27,26.1 25.1,27.5 25.8,29.6 24,28.2 22.2,29.6 22.9,27.5 21,26.1 23.3,26.1"/>
  </g>
</svg>
