<svg xmlns="http://www.w3.org/2000/svg" width="64" height="40" viewBox="0 0 64 40" role="img" aria-label="United States flag">
  <rect width="64" height="40" fill="#b22234"/>
  <g fill="#fff">
    <rect y="3.08" width="64" height="3.08"/>
    <rect y="9.24" width="64" height="3.08"/>
    <rect y="15.4" width="64" height="3.08"/>
    <rect y="21.56" width="64" height="3.08"/>
    <rect y="27.72" width="64" height="3.08"/>
    <rect y="33.88" width="64" height="3.08"/>
  </g>
  <rect width="28" height="21.56" fill="#3c3b6e"/>
  <g fill="#fff">
    <circle cx="3.5" cy="3.5" r="1"/><circle cx="9.3" cy="3.5" r="1"/><circle cx="15.1" cy="3.5" r="1"/><circle cx="20.9" cy="3.5" r="1"/>
    <circle cx="6.4" cy="6.9" r="1"/><circle cx="12.2" cy="6.9" r="1"/><circle cx="18" cy="6.9" r="1"/><circle cx="23.8" cy="6.9" r="1"/>
    <circle cx="3.5" cy="10.3" r="1"/><circle cx="9.3" cy="10.3" r="1"/><circle cx="15.1" cy="10.3" r="1"/><circle cx="20.9" cy="10.3" r="1"/>
    <circle cx="6.4" cy="13.7" r="1"/><circle cx="12.2" cy="13.7" r="1"/><circle cx="18" cy="13.7" r="1"/><circle cx="23.8" cy="13.7" r="1"/>
    <circle cx="3.5" cy="17.1" r="1"/><circle cx="9.3" cy="17.1" r="1"/><circle cx="15.1" cy="17.1" r="1"/><circle cx="20.9" cy="17.1" r="1"/>
  </g>
</svg>
